<svg id="Layer_1" data-name="Layer 1" xmlns="http://www.w3.org/2000/svg" viewBox="0 0 68.1 91.73"><defs><style>.cls-1{fill:#231f20;}</style></defs><path class="cls-1" d="M5.4,88.82C5.4,88.3,4,86.68,4,86.68l4.81.19A12.1,12.1,0,0,0,7.22,82a11.59,11.59,0,0,1,6,3.25c4.35-10.07,7.21-2.93,7.21-2.93.91-2.66,3-2.44,3-2.44C34.88,58.51,34.05,27.34,34.05,27.34L32.31,24C21.2,23.49,12.4,32.59,12.4,32.59c3.71-11.73,12.35-14.66,12.35-14.66C8.08,15.62,4.84,19.78,4.84,19.78,9.16,7.9,26.91,10.37,26.91,10.37,20.12,3.74,15,3.89,15,3.89L21.2.61c6.17-3.28,13.88,7.76,13.88,7.76C43.72-2.9,54.83,1.42,54.83,1.42c-3.7-.46-9.1,7-9.1,7C62.85,5.59,68.1,19.63,68.1,19.63c-3.24-4.32-16.82-4-16.82-4,16.2,6.32,11.27,18.05,11.27,18.05-1.55-7.25-16.67-13-16.67-13a22.21,22.21,0,0,1,5.41,20c-2.5-6.18-8.23-12.53-10.12-14.42s-1.79,1.62-1.79,1.62c-.21,30.17-8.6,50.21-8.6,50.21a2.37,2.37,0,0,0-.34,2.35c.62,1.11-.76,4.21-.76,4.21S36,83,35.07,83.49,31,87.5,32,86.8s5.73-.55,5.73-.55c-1.17.07-1.38,2.28-1.38,2.28l7.52,3.2H0S5.4,89.34,5.4,88.82Z"/></svg>