<svg id="Bird" xmlns="http://www.w3.org/2000/svg" viewBox="0 0 73.51 92.8"><path id="Bird-2" data-name="Bird" d="M63.54,85.23c-3.94,2-6.3,0-6.3,0-6.3-3.23-8.66-2.18-8.66-2.18s.09-19.16,0-24.68a5.68,5.68,0,0,0-5-5.95l-1.22-7.94C52.46,42.9,57.07,33.1,59.81,22.3s3.6-9.22,4.89-11.1,8.79-.43,8.79-.43c.43-4.9-7.92-4.18-7.92-4.18L64,3.76C55.75-6.45,49.67,7.35,49.67,7.35s-3.86,6.9-7.72,9.11-21,14.9-21,14.9H0L19.35,37.8a33.2,33.2,0,0,0,13.48,7.45l1.05,7.26s-1.14,0-4.29-.09-3.85,3.94-3.85,3.94v5.51H37.38s3.41-.43,3.33,2.72-2.63,2.88-2.63,2.88l-12.16-.08V82.87s-4.46-.61-7.44,1.58a7.64,7.64,0,0,1-8.75,0,17.79,17.79,0,0,0-6.21-1.93v6.91a13.3,13.3,0,0,1,4.9,1.49c5.34,3.59,12.69.88,14.52-.61s6.74-.44,10.07,1.57,8.31.09,8.31.09,1.49-.7,5.07-2,8,.87,10.5,2,6,.7,6.83,0,7.69-3,7.69-3,.35-6-.17-6.13S67.48,83.22,63.54,85.23ZM58.47,4.05a1.1,1.1,0,1,1-1.09,1.09A1.09,1.09,0,0,1,58.47,4.05ZM36.6,52.43,35.4,45h4.26l1.2,7.46Z"/></svg>