<svg id="Umberella" xmlns="http://www.w3.org/2000/svg" viewBox="0 0 92.67 79.22"><path id="Umberella-2" data-name="Umberella" d="M92.66,35.75s-.19-11.81-11.45-24S53.6-1.49,40.15,1.23,20,16,19.44,17.91s2.54.58,2.54.58a17.83,17.83,0,0,1,18.35,6s2,2,4.36,1.27,9.81-1.27,9.81-1.27L44,63.55C18,60.82,0,77,0,77c4.36,4.54,10,.73,10,.73a15.58,15.58,0,0,1,13.08-.36C30,80.44,34.7,77,34.7,77a14.82,14.82,0,0,1,10.9.37c5.63,2.54,8.36,1.45,12.17-.55s9.45.18,9.45.18c8,4.54,11.45,0,11.45,0-12.18-11.08-30-12.9-30-12.9L59.05,25.94c2.54.73,5.63,4.36,5.63,4.36s1.81,3.27,6.9,1.64,14.9,1.27,14.9,1.27l3.27,3.09C93,39.38,92.66,35.75,92.66,35.75ZM58.55,2C57.72,3,50.75,5.29,44.2,24c0,0-1.87,1-2.71-.62,0,0,5.31-16.23,14.15-22.57C55.64.82,59.39.92,58.55,2ZM68.9,31.55c-1.64.89-2.57-1-2.57-1,5.42-19.09,1-25,1-26.3s3,.74,3,.74C73.91,15.23,68.9,31.55,68.9,31.55Z"/></svg>