<svg id="Layer_1" data-name="Layer 1" xmlns="http://www.w3.org/2000/svg" viewBox="0 0 81.67 101.95"><defs><style>.cls-1{fill:#231f20;}</style></defs><path id="Feet" class="cls-1" d="M32.16,98.82S25.68,93,33.73,82.71s10.16-5.43,10-20c0,0-.5-9.63,0-12.08s3.67-11.55,16.1-3.5S70.33,68.87,68.4,73.08,55.1,99.34,42,101.62A10,10,0,0,1,32.16,98.82ZM32,77s8.21-2.85,4.74-15.48-7.3-8.91-1.55-22.26c0,0,4.16-8.7,4.63-11.16s1-12.08-13.52-9.42-18,16-17.88,20.64,2.2,29.36,13.45,36.5A10,10,0,0,0,32,77ZM34.6,0c-2.71,0-4.91,3.6-4.91,8s2.2,8,4.91,8,4.91-3.6,4.91-8S37.31,0,34.6,0ZM13.87,9.21c-2.09.64-3,3.8-2,7s3.52,5.35,5.61,4.7,3-3.8,2-7S16,8.56,13.87,9.21Zm9-6c-2.12.41-3.24,3.81-2.5,7.58s3.05,6.49,5.17,6.08,3.23-3.8,2.5-7.58S25,2.78,22.87,3.19ZM5.75,17.4c-1.72,1-1.92,3.87-.45,6.42s4.05,3.8,5.78,2.8,1.92-3.86.45-6.41S7.48,16.41,5.75,17.4ZM1.16,26c-1.5.86-1.55,3.57-.12,6S4.84,35.85,6.33,35s1.55-3.56.12-6S2.65,25.16,1.16,26Zm44,6.77c-.58,4.39,1.12,8.24,3.81,8.6s5.34-2.91,5.92-7.31-1.12-8.25-3.8-8.61S45.76,28.39,45.17,32.79Zm19.09,8.46c-1.42,3.09-1,6.33,1,7.25s4.75-.84,6.17-3.92,1-6.33-1-7.25S65.68,38.17,64.26,41.25Zm-7.88-5.72c-1.23,3.64-.57,7.15,1.48,7.84s4.69-1.7,5.92-5.35.57-7.15-1.48-7.84S57.61,31.89,56.38,35.53Zm14.91,13c-1.79,2.33-2,5.2-.39,6.42s4.31.3,6.1-2,2-5.2.39-6.41S73.09,46.22,71.29,48.55Zm3.9,9.32c-1.75,2.27-2,5-.69,6s3.89.07,5.63-2.2,2.05-5,.69-6S76.93,55.61,75.19,57.87Z"/></svg>