<svg id="Glasses" xmlns="http://www.w3.org/2000/svg" viewBox="0 0 99.99 51.65"><path id="Glasses-2" data-name="Glasses" d="M96.77,20.68C92,17.15,70.82,2,70.82,2s-4.77-3.53-9.54-.53-1.06,4.42-1.06,4.42A7,7,0,0,0,63.4,4.43a4.74,4.74,0,0,1,5.47.36c1.06,1.06,15.19,14,15.19,14l-68.51-.18L29.68,5.67s3.88-3.88,7.77-1.06,3.53-1,3.53-1l-3.89-3s-3-1.24-5.47,0-26,18-26,18S-1.22,21,.19,28.62s5.3,19.6,14.3,21.9,25.43,1.94,29.49-9,5.47-9.18,5.47-9.18,2.47-1.59,4.77,5.12,6.36,10.24,9.36,11.48,16.06,5.29,25.07.17S99.6,28.8,99.6,28.8,101.54,24.21,96.77,20.68Zm-94.92,4c0-.63,1.37-1.14,3.05-1.14S8,24.06,8,24.69s-1.37,1.14-3,1.14S1.85,25.32,1.85,24.69Zm13,6.34c-3.54,1.81,1.23,10.4.86,12.14S11.6,42.3,10,41.43,5.2,33.67,6.24,30.34c1.12-3.62,2.41-4.64,4.84-4.69s11.36.45,11.49,1.94S18.71,29.07,14.88,31ZM68,31c-3.54,1.81,1.24,10.4.86,12.14s-4.14-.87-5.76-1.74-4.77-7.76-3.74-11.09c1.12-3.62,2.42-4.64,4.85-4.69s11.36.45,11.48,1.94S71.87,29.07,68,31Zm25.71-5.2c-1.68,0-3-.51-3-1.14s1.37-1.14,3-1.14,3.05.51,3.05,1.14S95.42,25.83,93.74,25.83Z"/></svg>