<svg id="Starfish" xmlns="http://www.w3.org/2000/svg" viewBox="0 0 91.19 87.64"><path id="Starfish-2" data-name="Starfish" d="M73.77,48.57c9.61-6.29,18.12-14.23,17.38-16.22s-6.47-3-18.92-3-15.18-9.15-15.18-9.15C51.83,2.74,46.1,0,46.1,0S39.63,1.49,35.65,16.67s-20,13.73-20,13.73S.81,30.61.06,34.34s5.23,7.22,5.23,7.22,1.24.5,10.47,7.22,3.72,17.67.48,31.1,11,5.23,11,5.23,5.47-4,12.44-8.71,12.2-.25,12.2-.25,1.24.75,13.68,8.71,10.21-3.73,10.21-3.73-.25-3-3.74-16.43S73.77,48.57,73.77,48.57ZM8.05,37.84a.79.79,0,0,1,.45-1.52l30.12,9.09a.81.81,0,0,1,.53,1,.79.79,0,0,1-1,.53Zm33.38,20L21.16,81.87a.79.79,0,1,1-1.21-1l20.27-24a.79.79,0,0,1,1.21,1Zm4.75-17a.8.8,0,1,1-1.59,0V9.38a.8.8,0,0,1,1.59,0Zm24.24,40.8a.79.79,0,0,1-1.1-.19L51.23,55.71a.79.79,0,0,1,.19-1.1.78.78,0,0,1,1.1.19l18.1,25.73A.79.79,0,0,1,70.42,81.63ZM55.91,46.92a.77.77,0,0,1-1-.38l0-.06a.77.77,0,0,1,.38-1l26-11.82a.76.76,0,0,1,1,.38l0,.06a.77.77,0,0,1-.38,1Z"/></svg>