<svg id="Fish" xmlns="http://www.w3.org/2000/svg" viewBox="0 0 91.68 54.73"><path id="Fish-2" data-name="Fish" d="M91.68,36.62C88.75,3.62,54.49,7.06,54.49,7.06L36,0l2.09,14.69L18.25,31.28,2.8,19.26a36.53,36.53,0,0,0,0,28.23L18.61,35.27l14.65,9.85-3.57,9a20.77,20.77,0,0,0,16.15-2.6c30.65,8.2,42.79-10.68,42.79-10.68l-3.24-3.24ZM55.41,40.19h0a1.52,1.52,0,0,1-1.75-1.26l-2.1-12.86a1.53,1.53,0,0,1,3-.49l2.09,12.86A1.52,1.52,0,0,1,55.41,40.19Zm7.26,0a1.53,1.53,0,0,1-1.75-1.26l-2.1-12.86a1.53,1.53,0,0,1,3-.49l2.1,12.86A1.53,1.53,0,0,1,62.67,40.19ZM77,25.81a2,2,0,1,1,2-2A2,2,0,0,1,77,25.81Z"/></svg>