<svg id="Layer_1" data-name="Layer 1" xmlns="http://www.w3.org/2000/svg" viewBox="0 0 96.24 79.17"><path d="M92.71,31.57S85,26.56,85,21.15s-10.09-9.37-10.09-9.37c-4.33-9.73-17.3-8.34-17.3-8.34-10.46-8.16-20.37.77-20.37.77C25.84.24,19,12.86,19,12.86c-7.93,2.52-8.51,6.67-8.51,6.67S11.25,24.76,4.58,30-.11,40.26,2.05,44.76,21,63.15,21,63.15A22,22,0,0,1,24.4,70.9a5.48,5.48,0,0,0,5.77,4.28H39a25.08,25.08,0,0,1,6.13,3.1,4.39,4.39,0,0,0,5.23,0l7.21-3.1s4.68,0,8.83,0,4.68-2.48,5.4-7,3.07-5,3.07-5A118.4,118.4,0,0,0,92.71,46.2C100.64,36.65,92.71,31.57,92.71,31.57Zm-61,27-.3.34a1.16,1.16,0,0,1-1.64.13L7.4,40a1.17,1.17,0,0,1-.13-1.64l.3-.35a1.18,1.18,0,0,1,1.64-.13L31.59,56.94A1.17,1.17,0,0,1,31.72,58.59Zm5-2.45-.2.11a1.29,1.29,0,0,1-1.75-.47L17,24.84a1.28,1.28,0,0,1,.47-1.74l.2-.12a1.29,1.29,0,0,1,1.75.47L37.23,54.39A1.29,1.29,0,0,1,36.76,56.14Zm5.55-2h-.05a1.37,1.37,0,0,1-1.67-1L30.32,13.41a1.37,1.37,0,0,1,1-1.67h.05a1.37,1.37,0,0,1,1.67,1L43.29,52.44A1.37,1.37,0,0,1,42.31,54.11Zm7.27-2.67a1.4,1.4,0,1,1-2.79,0V8.83a1.4,1.4,0,0,1,2.79,0Zm6.06,1.7a1.37,1.37,0,0,1-1.67,1h0a1.38,1.38,0,0,1-1-1.67L63.22,12.71a1.37,1.37,0,0,1,1.67-1h0a1.38,1.38,0,0,1,1,1.67Zm5.78,2.64a1.28,1.28,0,0,1-1.74.47l-.2-.11A1.29,1.29,0,0,1,59,54.39L76.87,23.45A1.29,1.29,0,0,1,78.62,23l.2.12a1.28,1.28,0,0,1,.47,1.74ZM88.83,40,66.46,59.06a1.17,1.17,0,0,1-1.65-.13l-.29-.34a1.17,1.17,0,0,1,.13-1.65L87,37.83a1.19,1.19,0,0,1,1.65.13l.29.35A1.16,1.16,0,0,1,88.83,40Z"/></svg>