<?xml version="1.0" encoding="utf-8"?>
<!-- Generator: Adobe Illustrator 24.3.0, SVG Export Plug-In . SVG Version: 6.00 Build 0)  -->
<svg version="1.1" id="Layer_1" xmlns="http://www.w3.org/2000/svg" xmlns:xlink="http://www.w3.org/1999/xlink" x="0px" y="0px"
	 viewBox="0 0 54.97 60.08" style="enable-background:new 0 0 54.97 60.08;" xml:space="preserve">
<style type="text/css">
	.st0{fill:#EFDBBA;}
	.st1{fill:#A89A86;}
	.st2{fill:#EFDBBA;stroke:#6B9E41;stroke-width:1.0957;stroke-miterlimit:10;}
	.st3{fill:#EFDBBA;stroke:#6B9E41;stroke-width:0.5478;stroke-miterlimit:10;}
	.st4{fill:#CCBAA2;}
	.st5{fill:#6B9E41;}
</style>
<g id="Spray_Bottle_1_">
	<path class="st0" d="M41.81,12.48c0,0,3.9-1.76,4.9-1.92c0.99-0.16,1.38-0.64,1.38-0.64s4.89-2.04,5.73,0.49
		c0.83,2.53-3.45,2.68-3.45,2.68s-3.36,0.77-5.67,2.91l-1.89,0.13l-1.28-2.46L41.81,12.48z"/>
	<path class="st1" d="M42.79,12.05c0,0,0.24,3.11,2.19,3.7c0,0-1.75,0.11-2.07,0.11l-1.78-3.09L42.79,12.05z"/>
	<path class="st2" d="M49.8,43.78c0,0-1.23-5.79-3.24-9.25c-0.79-1.34-1.45-4.32-1.97-7.49c0-0.02,0-0.02,0-0.02
		c-0.04-0.22-0.07-0.42-0.11-0.64v-0.02c-0.15-0.99-0.31-1.97-0.42-2.94c0,0,0-0.02,0-0.04c-0.04-0.22-0.07-0.46-0.09-0.7
		c-0.15-1.14-0.28-2.24-0.37-3.16c-0.02-0.02-0.02-0.04-0.02-0.04c-0.02-0.18-0.02-0.35-0.04-0.5c-0.15-1.49-0.24-2.45-0.24-2.45
		l-0.24-0.42l-0.09-0.18l-0.04-0.07l-0.85-1.47h-9.75c0,0-0.55,0.53-1.31,2.02c-0.02,0-0.02,0.02-0.02,0.02
		c-0.48,0.96-1.1,2.37-1.71,4.32c0,0.02-0.02,0.04-0.02,0.07c-0.33,1.05-0.66,2.28-1.01,3.68c0.02,0.02,0,0.04-0.02,0.07
		c-0.26,1.21-0.55,2.54-0.81,4.05c-0.02,0.09-0.02,0.18-0.04,0.26v0.02c-0.02,0.04-0.02,0.07-0.02,0.11v0.02
		c-0.18,1.05-0.35,2.19-0.53,3.42v0.09c-0.55,4.14-0.96,9.18-1.12,15.32c0,0,0.02,6.33,1.23,8.13c0,0,0.75,2.02,3.66,2.85
		c3.83,1.12,11.48,0.92,15.98-0.81C51.02,56.29,49.8,43.78,49.8,43.78z M40.39,36.48c0,0.74-0.59,1.34-1.34,1.34
		c-0.74,0-1.36-0.59-1.36-1.34c0-0.75,0.61-1.36,1.36-1.36C39.8,35.12,40.39,35.74,40.39,36.48z"/>
	<path class="st0" d="M49.09,43.89c0,0-1.14-5.3-3.07-8.48c-0.88-1.42-1.58-4.97-2.1-8.39c0,0,0,0,0-0.02
		c-0.02-0.22-0.07-0.44-0.09-0.66c-0.15-0.99-0.26-1.95-0.39-2.83v-0.09c-0.04-0.24-0.07-0.48-0.09-0.72
		c-0.15-1.31-0.26-2.39-0.33-3.07v-0.07c-0.02-0.02-0.02,0-0.02,0v-0.02c0-0.22-0.02-0.39-0.04-0.5c0-0.09,0-0.13,0-0.13l-1.14-1.97
		h-3.46c-0.02,0-0.02,0-0.04,0h-5.7c0,0-0.33,0.31-0.83,1.16c-0.02,0.02-0.02,0.04-0.04,0.07c-0.11,0.22-0.24,0.44-0.37,0.72
		c0,0.02-0.02,0.04-0.04,0.07c-0.07,0.09-0.11,0.18-0.13,0.28c-0.02,0.02-0.04,0.02-0.04,0.04c0,0,0,0.02-0.02,0.09
		c-0.09,0.15-0.15,0.31-0.24,0.48c-0.02,0.04-0.02,0.09-0.04,0.11c-0.72,1.58-1.53,3.92-2.26,7.25c-0.07,0.24-0.11,0.48-0.15,0.72
		c0,0.02,0,0.04-0.02,0.04c-0.02,0.09-0.04,0.15-0.04,0.24c0,0.02,0,0.02,0,0.02c-0.94,4.56-1.73,10.83-1.95,19.39
		c0,0,0,5.81,1.14,7.45c0,0,0.7,1.84,3.44,2.61c3.62,1.03,10.83,0.85,15.03-0.75C50.23,55.37,49.09,43.89,49.09,43.89z M40.39,36.48
		c0,0.74-0.59,1.34-1.34,1.34c-0.74,0-1.36-0.59-1.36-1.34c0-0.75,0.61-1.36,1.36-1.36C39.8,35.12,40.39,35.74,40.39,36.48z"/>
	<path class="st2" d="M27.59,8.22c0,0,1.36,1.2,5.44,1.36c4.08,0.16,8.98,0,8.98,0l9.53-4.65V0.66c0,0-16.11-0.49-19.98,0.6
		S26.53,7.66,27.59,8.22z"/>
	<path class="st3" d="M51.54,0.58v4.58l2.71-0.15c0,0,0.44-0.18,0.44-1.39s0-2.57,0-2.57s0.15-0.4-0.95-0.48
		C52.63,0.51,51.54,0.58,51.54,0.58z"/>
	<path class="st0" d="M40.32,18.11c0,0-0.06-2.4,4.03-2.25s4.3,0.59,4.36,1.57c0.06,0.98-0.41,1.9-2.37,1.84
		c-1.96-0.06-3.91,0.41-3.91,0.41S40.53,19.95,40.32,18.11z"/>
	<path class="st0" d="M40.4,21.85c0,0-0.07,1.79,2.66,1.59c2.72-0.2,4.24-0.25,4.24-0.25s2.16-0.8,1.16-2.86s-6.59-0.43-6.59-0.43
		s-1.51,0.47-1.46,1.58C40.45,22.59,40.4,21.85,40.4,21.85z"/>
	<path class="st0" d="M41.52,25.27c0,0-0.23,1.76,2.89,1.74c3.12-0.02,3.4-0.31,3.76-1.02s0.51-1.95-0.71-2.64
		c0,0-4.88-0.21-5.52,0.72C41.95,24.07,41.6,24.42,41.52,25.27z"/>
	<path class="st1" d="M48.44,16.6c0.16,2.07-0.86,2.17-1.64,2.08c-0.78-0.09-2.7,0.24-4.63,0.46c-1.92,0.22-0.54-2.83-0.54-2.83
		s-1.63,0.74-1.25,2.14s1.84,1.25,1.84,1.25s2.07-0.4,2.89-0.4c0.81,0,2.5,0.04,2.92-0.36c0.42-0.4,0.73-0.64,0.68-1.5
		C48.66,16.57,48.44,16.6,48.44,16.6z"/>
	<path class="st1" d="M41.52,20.04c0,0-1.37,2.61,1.02,2.65c2.39,0.03,4.78-0.21,4.78-0.21s1.33-0.21,1.29-1.77
		c0,0,0.68,1.51-1.07,2.37c0,0-4.38,0.5-5.27,0.38s-1.95-0.48-1.86-1.98C40.4,21.48,40.47,20.43,41.52,20.04z"/>
	<path class="st4" d="M47.44,10.35c0,0,1.04,2.48,1.76,3.09l0.64-0.21l-1.9-3.17L47.44,10.35z"/>
	<path class="st1" d="M42.69,23.66c0,0-1.06,2.17,0.26,2.53c1.32,0.36,3.29,0.09,3.29,0.09s1.73-0.76,2.03-0.51
		c0.3,0.25-0.94,1.14-1.16,1.04c0,0-3.02,0.47-4.23,0.01s-1.57-1.03-1.21-2.26C41.67,24.57,41.9,23.82,42.69,23.66z"/>
	<path class="st0" d="M42.84,12.38c0,0,3.23-1.73,5.29-1.97c0,0,1.75-0.87,2.76-0.98c0,0,1.16-0.27,2.23,0.08c0,0-1-0.7-3.2-0.16
		s-2.08,0.86-2.47,1c-0.39,0.14-2.39,0.65-4.09,1.46l-0.54,0.23L42.84,12.38z"/>
	<path class="st0" d="M51.09,12.64c0,0,1.8,0.07,2.4-0.59c0,0-0.58,0.69-2.24,0.94L51.09,12.64z"/>
	<path class="st3" d="M45.59,7.77l3.77-1.65c0,0,0.27,2.87,0.86,4.47s1.45,3.26,1.45,3.26s0.24,0.94-0.82,0.39
		c-1.06-0.55-3.14-4.63-3.14-4.63s-0.39-0.86-0.82-1.26C46.45,7.97,45.59,7.77,45.59,7.77z"/>
	<path class="st3" d="M33.2,9.71c0,0,5.97-0.32,8.42-0.05l0.45,4.72h-9.51C32.56,14.39,32.97,10.57,33.2,9.71z"/>
	<path class="st5" d="M35.99,14.21c0,0-7.6,24.26-3.43,37.99c0,0,0.52,0.88,1.44,0c0,0-4.22-17.17,3.31-37.99H35.99z"/>
	<ellipse class="st0" cx="37.62" cy="56.44" rx="7.35" ry="1.24"/>
	<circle class="st5" cx="28.85" cy="49.26" r="1.11"/>
	<circle class="st5" cx="37.08" cy="43.7" r="1.43"/>
	<circle class="st5" cx="37.82" cy="50.37" r="1.56"/>
	<circle class="st5" cx="42.81" cy="45" r="1.3"/>
	<path class="st5" d="M40.39,36.48c0,0.74-0.59,1.34-1.34,1.34c-0.74,0-1.36-0.59-1.36-1.34c0-0.75,0.61-1.36,1.36-1.36
		C39.8,35.12,40.39,35.74,40.39,36.48z"/>
	<circle class="st5" cx="41.55" cy="31.75" r="0.97"/>
	<circle class="st5" cx="35.43" cy="31.75" r="0.84"/>
	<circle class="st5" cx="29.96" cy="32.72" r="1"/>
	<circle class="st5" cx="29.96" cy="40.4" r="0.63"/>
	<circle class="st5" cx="37.82" cy="26.29" r="0.74"/>
	<path class="st5" d="M54.21,1.2h-2.23c-0.04,0-0.08-0.03-0.08-0.08v0c0-0.04,0.03-0.08,0.08-0.08h2.23c0.04,0,0.08,0.03,0.08,0.08
		v0C54.29,1.16,54.26,1.2,54.21,1.2z"/>
	<path class="st5" d="M54.23,2.78H52c-0.04,0-0.08-0.03-0.08-0.08l0,0c0-0.04,0.03-0.08,0.08-0.08h2.23c0.04,0,0.08,0.03,0.08,0.08
		l0,0C54.31,2.74,54.27,2.78,54.23,2.78z"/>
	<path class="st5" d="M54.21,4.29h-2.23c-0.04,0-0.08-0.03-0.08-0.08l0,0c0-0.04,0.03-0.08,0.08-0.08h2.23
		c0.04,0,0.08,0.03,0.08,0.08l0,0C54.29,4.25,54.26,4.29,54.21,4.29z"/>
	<path class="st5" d="M54.21,3.53h-2.23c-0.04,0-0.08-0.03-0.08-0.08l0,0c0-0.04,0.03-0.08,0.08-0.08h2.23
		c0.04,0,0.08,0.03,0.08,0.08l0,0C54.29,3.5,54.26,3.53,54.21,3.53z"/>
	<path class="st5" d="M54.21,2.06h-2.23c-0.04,0-0.08-0.03-0.08-0.08v0c0-0.04,0.03-0.08,0.08-0.08h2.23c0.04,0,0.08,0.03,0.08,0.08
		v0C54.29,2.03,54.26,2.06,54.21,2.06z"/>
	<path class="st5" d="M37.43,13.97L37.43,13.97c-0.06,0-0.11-0.05-0.11-0.11v-3.65c0-0.06,0.05-0.11,0.11-0.11l0,0
		c0.06,0,0.11,0.05,0.11,0.11v3.65C37.54,13.92,37.49,13.97,37.43,13.97z"/>
	<path class="st5" d="M39.13,13.87L39.13,13.87c-0.07,0-0.12-0.05-0.12-0.11l-0.14-3.54c0-0.06,0.05-0.11,0.11-0.12l0,0
		c0.06,0,0.11,0.05,0.12,0.11l0.14,3.54C39.24,13.82,39.2,13.87,39.13,13.87z"/>
	<path class="st5" d="M35.7,13.96L35.7,13.96c-0.06,0-0.11-0.06-0.11-0.12l0.23-3.67c0-0.06,0.06-0.11,0.12-0.11l0,0
		c0.06,0,0.11,0.06,0.11,0.12l-0.23,3.67C35.82,13.91,35.76,13.96,35.7,13.96z"/>
	<path class="st5" d="M33.97,13.87L33.97,13.87c-0.07-0.01-0.11-0.07-0.1-0.13l0.45-3.5c0.01-0.06,0.06-0.11,0.13-0.1l0.01,0
		c0.06,0.01,0.11,0.06,0.1,0.13l-0.45,3.5C34.08,13.83,34.03,13.87,33.97,13.87z"/>
	<path class="st5" d="M40.84,13.86L40.84,13.86c-0.07,0.01-0.12-0.04-0.12-0.1l-0.29-3.5c-0.01-0.06,0.04-0.11,0.1-0.12l0,0
		c0.06-0.01,0.11,0.04,0.12,0.1l0.29,3.5C40.95,13.81,40.9,13.86,40.84,13.86z"/>
	<path class="st0" d="M0.01,26.62c-0.26,4.9,3.11,10.2,4.7,12.32s2.25,1.61,3.31,1.39c1.17-0.24,11.66-5.17,11.66-5.17
		c2.32-2.05,7.21-2.65,7.21-2.65l0.93-3.72c1.13-1.5,2.68-4.15,2.68-5.87s0.64-3.65,0.64-3.65c2.25-3.44,3.05-1.39,6.09-2.05
		c3.05-0.66,2.05-3.05,1.66-3.25c-0.4-0.2-1.99-0.07-3.71-0.26c-1.72-0.2-3.31-0.4-6.43,0.6s-3.91,3.38-6.96,5.56
		s-6.43,1.85-9.34,1.85S0.01,23.97,0.01,23.97V26.62z"/>
	<path class="st4" d="M1.85,34.21c0,0,1.67,2.06,6.36,1.14c4.68-0.92,8.54-2.85,8.54-2.85s1.75-0.18,0.55-2.39
		c-1.19-2.2-0.45-3.49,0.42-3.58s4.82,2.48,6.93,1.29c2.11-1.19,4.32-2.85,4.59-6.89c0.28-4.04,2.11-4.99,2.94-5.07
		s4.66,0.9,5.64,0.27c0.97-0.62,0.63-2.02,1.22-2.02c0.23,0,1.2,3.14-2.45,3.21c-3.65,0.08-3.03-0.69-5.02,1.34
		c0,0-0.58,0.1-0.88,3.84c-0.3,3.74-3,6.29-3,6.29s-1.47,0.39-1.72,0.76c-0.34,0.49-1.54,2.51-2.66,2.41c0,0-0.3,0.08-0.78-0.58
		c-0.48-0.66-1.8-1.52-2.98-1.85c-1.18-0.33-0.69-0.18-0.69-0.18s2.07,1.86,2.19,2.49s0.27,1.6-2.71,2.72
		c-2.98,1.12-4.9,2.46-8.95,3.55s-5.69-0.62-5.69-0.62S1.98,34.75,1.85,34.21z"/>
	<path class="st1" d="M27.74,28.95c0.63-0.44,1.85-2.76,1.85-2.76c1.15-2.19,1.17-4.42,1.17-4.42s0.41-4.71,3.49-4.5
		s3.73-0.17,3.73-0.17c1.51-0.52,1.35-2.03,1.35-2.03c-0.28,1.54-1.51,1.88-1.51,1.88c-0.11,0.18-2.09,0.31-3.46,0.13
		c-1.37-0.18-2.08,0.56-2.08,0.56s-0.36,0.26-0.82,0.82c-0.47,0.57-0.82,2.35-0.82,2.35s-0.08,1.25-0.44,3.22s-2.64,4.43-2.64,4.43
		s-0.64,0.67-0.89,0.68L27.74,28.95z"/>
	<path class="st1" d="M3.43,37.06c0,0,2.82,2.41,7.24,0.68c4.38-1.71,9.4-4,9.4-4s1.93-1.1,0.29-2.92
		c-0.47-0.51-1.64-1.41-1.56-1.55c0.2-0.36,2.91,1.02,3.83,2.25c1.27,1.69,3.13-1.84,3.51-2.18s1.7-0.54,1.7-0.54
		s-0.69,3.2-0.96,3.6c-0.27,0.4-3.31,0.33-5.3,1.64C19.6,35.35,9.63,39.8,9.63,39.8s-3.09,1.43-4.26-0.13
		C4.11,37.99,3.43,37.06,3.43,37.06z"/>
	<path class="st1" d="M0.01,24.45L8.1,22.6c0,0,4.15-0.69,6.04-0.5c1.94,0.2,5.51,0.45,8.42-2.36s5.78-5.27,8.62-5.35
		c0,0,2.29-0.26,3.73,0c1.45,0.26,4.14-0.27,4.14-0.27s0.26-0.34-2.64-0.31c0,0-2.91-0.3-3.64-0.26c-0.73,0.05-4.65,0.01-7.16,2.75
		s-4.77,4.4-6.07,4.77c-1.31,0.37-2.18,0.76-6.34,0.67c-4.16-0.1-13.18,2.25-13.18,2.25V24.45z"/>
</g>
</svg>
